<svg xmlns="http://www.w3.org/2000/svg" id="Layer_1" x="0" y="0" version="1.1" xml:space="preserve" viewBox="0 0 272 279">
  <style>
    .st1{fill:#333}.st18{enable-background:new}.st60{fill:#788182}.st76{opacity:.2;fill:#1c2829}.st80{opacity:.4;fill:#fff}.st81{fill:#ebfdff}.st82{fill:#fff}.st83{fill:#a7b4b5}
  </style>
  <linearGradient id="SVGID_1_" x1="145.1" x2="176.2" y1="59.4" y2="59.4" gradientTransform="scale(-1 1) rotate(50.4 -8.8 -186.2)" gradientUnits="userSpaceOnUse">
    <stop offset="0" stop-color="#9e9e9e"/>
    <stop offset="1" stop-color="#737373"/>
  </linearGradient>
  <path fill="url(#SVGID_1_)" d="M92.3 94.4c-.2.3-.7.5-1 .7.2-.3.8-.6 1-.8zm7.2-5.5c-.2.3-.7.5-1 .7.2-.3.7-.6 1-.8zM92.8 94c.3-.4.8-.7 1.2-1l1.4-1 2.6-2a37.4 37.4 0 01-1.5 3.5c-.2.4-.7.6-1 .9l-4.3 3.3c.6-1.2 1.2-2.5 1.6-3.7zm-2.6 5.6c.8-.9 2.8-2 2.8-2l2.4-2c-1 2-2.2 4-3.6 5.7l-.9 1.2-1.8 1.4-3.4 2.6a79 79 0 004.5-6.9zm-7.5 9.8l1-.8-2 1.8 1-1zm-1.9 1.7l1-.7-2 1.7 1-1zM88 106l-1 .7a62.5 62.5 0 011-.7zm-1.7 1.3l-5.2 4c1.2-1 2.3-2.2 3.5-3.1l4.4-3.3-2.7 2.4zM88 106c3.4-2.3 5.7-5.6 7.7-9a42 42 0 004-8.2l-3.2 2.4-4.2 3.3-1 .7c-.2.2-.3.7-.4.9a41.8 41.8 0 01-11.5 16.4l8.6-6.5z"/>
  <path d="M86.3 107.2l2.7-2.4-4.4 3.3-3.5 3 5.2-4z" class="st1"/>
  <linearGradient id="SVGID_2_" x1="85.7" x2="95.4" y1="101.2" y2="101.2" gradientUnits="userSpaceOnUse">
    <stop offset="0" stop-color="#070a0a"/>
    <stop offset=".9" stop-color="#1c2829"/>
  </linearGradient>
  <path fill="url(#SVGID_2_)" d="M91 102.6l-5.3 4a59.3 59.3 0 004.7-7.2l1.5-1 3.5-2.6a56 56 0 01-3.3 5.3l-1.2 1.5z"/>
  <linearGradient id="SVGID_3_" x1="91.2" x2="98" y1="93.9" y2="93.9" gradientUnits="userSpaceOnUse">
    <stop offset="0" stop-color="#070a0a"/>
    <stop offset=".9" stop-color="#1c2829"/>
  </linearGradient>
  <path fill="url(#SVGID_3_)" d="M96.4 93.8l-5.2 4 1-2.3.6-1.2c.1-.4.5-.6.9-.9l4.3-3.3-1 2.6-.6 1.1z"/>
  <g>
    <linearGradient id="SVGID_4_" x1="164.1" x2="208.4" y1="38.9" y2="38.9" gradientTransform="scale(-1 1) rotate(50.4 -8.8 -186.2)" gradientUnits="userSpaceOnUse">
      <stop offset=".3" stop-color="#a7b4b5"/>
      <stop offset="1" stop-color="#e8e8e8"/>
    </linearGradient>
    <path fill="url(#SVGID_4_)" d="M80.2 111.8l1-.7a34 34 0 00-1 .7zm7.1-5.5l-1 .7a33 33 0 001-.7zm-4.5 2.5c-1.9 1.1-3.5 2.7-5.2 4 3.8-1.5 6.9-4.2 10.1-6.7l-2.1 1.5-2.8 1.2zm-8.2 4.7c.5-.2 1-.6 1.4-1l1.3-1 2.6-2c-2.4.3-4.7 0-7-.8l-2-.6-1.2-.4-1 .8-4.3 3.3c1.8.6 3.6 1.2 5.5 1.6 1.5.2 3.1.2 4.7.1zm-13.4-2.8l5.3-4.1-8.1-3c-.4 0-.7-.2-1-.3l-.7-.2-.4.2-1.6 1.3-3.3 2.6 9.8 3.5zm-13-4.5l5.3-4.2a36.3 36.3 0 00-8.5-1.6l-.7.1-1 .9c-1.4 1-2.7 2.2-4 3.3 3 0 6 .7 9 1.5zm-20 2.4l1-.8a39 39 0 00-2.2 1.7l1.3-.9zm7.2-6l-1 .9a38 38 0 001-.8zm1 2.2c1.1-.5 1.9-1.4 2.8-2.1l2.6-2.1c-2.5.3-4.9 1.3-7 2.7-2.3 1.5-4.3 3.4-6.5 5.1 2.5-1.9 5.2-3 8.2-3.6zm-1.6-1.6c2-1.6 4.2-3 6.6-3.7 2.5-.7 5.1-.6 7.6-.3 3.4.5 6.8 1.5 10 2.7l10.4 3.7c3.3 1.1 6.5 2.6 10 2.6 3.6 0 7-1 9.8-3.2l-5.9 4.5c-2 1.5-4 3.1-6.2 4.2a14.7 14.7 0 01-10 .8c-5.4-1.3-10.5-3.4-15.7-5.2-4.5-1.6-9.2-3.2-14-3.2-4.1 0-8 1.6-11.3 4.1l8.7-7z"/>
    <path d="M33.6 104.1l-5.3 4.3a19.3 19.3 0 017.9-3.4c.8-.2 1.3-.9 2-1.4l3.6-3c-3 .4-5.7 1.6-8.2 3.5z" class="st1"/>
    <linearGradient id="SVGID_5_" x1="39.2" x2="53.5" y1="103.3" y2="103.3" gradientUnits="userSpaceOnUse">
      <stop offset="0" stop-color="#070a0a"/>
      <stop offset=".9" stop-color="#1c2829"/>
    </linearGradient>
    <path fill="url(#SVGID_5_)" d="M44.5 100.4l-5.3 4.3a31.8 31.8 0 019 1.5l1-.8 4.3-3.4c-2.3-.6-4.7-1.2-7-1.5-.6 0-1.5-.3-2-.1z"/>
    <linearGradient id="SVGID_6_" x1="51.4" x2="66.5" y1="106.9" y2="106.9" gradientUnits="userSpaceOnUse">
      <stop offset="0" stop-color="#070a0a"/>
      <stop offset=".9" stop-color="#1c2829"/>
    </linearGradient>
    <path fill="url(#SVGID_6_)" d="M56.7 103l-5.3 4.2a310.6 310.6 0 009.8 3.5l1.8-1.4 3.5-2.7-9.8-3.5z"/>
    <linearGradient id="SVGID_7_" x1="64.4" x2="79.9" y1="110.7" y2="110.7" gradientUnits="userSpaceOnUse">
      <stop offset="0" stop-color="#070a0a"/>
      <stop offset=".9" stop-color="#1c2829"/>
    </linearGradient>
    <path fill="url(#SVGID_7_)" d="M69.7 107.7l-5.3 4c2.4.9 4.9 1.8 7.4 2a13.7 13.7 0 002.6-.2c.4 0 .8-.4 1.1-.7l4.4-3.3c-1.6 0-3.2.1-4.7-.2-1.9-.3-3.7-1-5.5-1.6z"/>
    <path d="M82.8 108.8l2.8-1.2 2.1-1.5c-3.2 2.5-6.3 5.2-10.1 6.7 1.7-1.3 3.3-2.9 5.2-4z" class="st1"/>
  </g>
  <g>
    <path d="M27.7 112.2l-5.4 4.4a27 27 0 014.3-6.4c.9-1 2-1.9 3-2.7l3-2.4a26.7 26.7 0 00-4.5 6.2l-.4 1z" class="st1"/>
    <linearGradient id="SVGID_8_" x1="19.3" x2="27.5" y1="137" y2="137" gradientUnits="userSpaceOnUse">
      <stop offset="0" stop-color="#070a0a"/>
      <stop offset=".9" stop-color="#1c2829"/>
    </linearGradient>
    <path fill="url(#SVGID_8_)" d="M21.8 145.4a44.8 44.8 0 01-2.5-12.2c0-.3.6-.6.9-.9 1.5-1.1 3-2.5 4.5-3.7.4 4.2 1.3 8.4 2.8 12.4l-5.7 4.4z"/>
    <linearGradient id="SVGID_9_" x1="19.1" x2="26.5" y1="122.1" y2="122.1" gradientUnits="userSpaceOnUse">
      <stop offset="0" stop-color="#070a0a"/>
      <stop offset=".9" stop-color="#1c2829"/>
    </linearGradient>
    <path fill="url(#SVGID_9_)" d="M24.9 124.9l-5.8 4.6c.2-2.2.5-4.9 1-7 .1-.8.5-1.5.7-2.2l.3-1.2 1.2-.9 4.2-3.4a34.4 34.4 0 00-1.7 9.8v.3z"/>
  </g>
  <linearGradient id="SVGID_10_" x1="200.5" x2="194.1" y1="17.2" y2="23.4" gradientTransform="scale(-1 1) rotate(50.4 -8.8 -186.2)" gradientUnits="userSpaceOnUse">
    <stop offset="0" stop-color="#070a0a"/>
    <stop offset=".9" stop-color="#1c2829"/>
  </linearGradient>
  <path fill="url(#SVGID_10_)" d="M39 102.2a14 14 0 00-5.3 2l-2.1 2.3c2-1.7 4.6-3.1 7.3-4.3z"/>
  <g>
    <linearGradient id="SVGID_11_" x1="201.6" x2="201.9" y1="18.4" y2="18.4" gradientTransform="scale(-1 1) rotate(50.4 -8.8 -186.2)" gradientUnits="userSpaceOnUse">
      <stop offset="0" stop-color="#d9d9d9"/>
      <stop offset="1" stop-color="#adadad"/>
    </linearGradient>
    <path fill="url(#SVGID_11_)" d="M31.9 106.5s0-.2.2-.2l-.2.2z"/>
    <linearGradient id="SVGID_12_" x1="217.7" x2="218" y1="17.2" y2="17.2" gradientTransform="scale(-1 1) rotate(50.4 -8.8 -186.2)" gradientUnits="userSpaceOnUse">
      <stop offset="0" stop-color="#d9d9d9"/>
      <stop offset="1" stop-color="#adadad"/>
    </linearGradient>
    <path fill="url(#SVGID_12_)" d="M20.6 118.2l.3-.3-.3.3z"/>
    <linearGradient id="SVGID_13_" x1="195.9" x2="218.4" y1="17.7" y2="17.7" gradientTransform="scale(-1 1) rotate(50.4 -8.8 -186.2)" gradientUnits="userSpaceOnUse">
      <stop offset="0" stop-color="#070a0a"/>
      <stop offset=".9" stop-color="#1c2829"/>
    </linearGradient>
    <path fill="url(#SVGID_13_)" d="M35.6 102.5l-.5.4.9-.7-9.2 7.4c-2.8 2.5-5 5.5-6.5 8.9l.3-.4c.1-.2 0 0 0 0v.1l8.5-7c.7-1.6 1.7-3.2 2.8-4.7l-.4.6-1 .8.7-1c.2-.4.7-.6 1-1l-.1.4c.8-1.1 1.7-2.1 2.7-3h-.2l-1 .9 2-1.7zm-3.6 3.4l1.8-1.8-.9 1-1 .8zm-6.6 5l1-.7a32 32 0 01-1 .8zm2.8-2.4l-2 1.7 1-.9 1-.8zm-.9.9l5.3-4.3a25.9 25.9 0 00-4.8 7l-.7.6-1.6 1.3-3.2 2.6"/>
    <linearGradient id="SVGID_14_" x1="197" x2="197.5" y1="18.5" y2="18.5" gradientTransform="scale(-1 1) rotate(50.4 -8.8 -186.2)" gradientUnits="userSpaceOnUse">
      <stop offset="0" stop-color="#d9d9d9"/>
      <stop offset="1" stop-color="#adadad"/>
    </linearGradient>
    <path fill="url(#SVGID_14_)" d="M35.1 102.9l-.3.3.3-.3z"/>
    <linearGradient id="SVGID_15_" x1="238.2" x2="213" y1="37.7" y2="17.3" gradientTransform="scale(-1 1) rotate(50.4 -8.8 -186.2)" gradientUnits="userSpaceOnUse">
      <stop offset=".3" stop-color="#a7b4b5"/>
      <stop offset="1" stop-color="#e8e8e8"/>
    </linearGradient>
    <path fill="url(#SVGID_15_)" d="M20.9 149l9-7a40.3 40.3 0 01-.8-30.7l-8 6.5-.7.5-.6 1.3a30.5 30.5 0 00-1.2 3.7 40.9 40.9 0 002.3 25.6zm5.6-34a33.3 33.3 0 00-1.9 9.4c0 .3 0 .4-.2.6l-1 .8-4.2 3.3c.2-3.4.8-6.7 2-9.9l1.1-.9 1.5-1.2 2.7-2.1zm-4.7 30.3c-1.4-4-2.2-8-2.5-12.2l5.3-4.2a43.5 43.5 0 002.7 12.2l-1.1.9-4.4 3.3z"/>
  </g>
  <g>
    <linearGradient id="SVGID_16_" x1="114" x2="160.2" y1="4.4" y2="4.4" gradientTransform="scale(-1 1) rotate(17 -146.9 -699.6)" gradientUnits="userSpaceOnUse">
      <stop offset="0" stop-color="#c7c7c7"/>
      <stop offset=".1" stop-color="#bababa"/>
      <stop offset=".5" stop-color="#818181"/>
      <stop offset=".8" stop-color="#5d5d5d"/>
      <stop offset="1" stop-color="#4f4f4f"/>
    </linearGradient>
    <path fill="url(#SVGID_16_)" d="M81.6 95.3c-3-.4-5.9-1.9-8.7-4.3a33.8 33.8 0 01-7.4-9.6c-2.2-4.2-4-9-5.2-14.1a68.5 68.5 0 01.2-30.5c1.1-4.5 2.8-8.4 5-11.5a16.2 16.2 0 019-6.9c2.7-.8 5.5-.9 7.8-.2a19 19 0 018.3 5c2.5 2.6 4.8 5.9 6.7 9.8a68.7 68.7 0 014.7 41.6c-1 4.3-2.5 8.1-4.4 11.3-2 3.4-4.4 6-7 7.6-1.1.6-2.2 1-3.3 1.4-1.8.6-3.7.7-5.7.4zm-8.1-74.6a14.6 14.6 0 00-6.6 5.6c-2 3-3.6 6.6-4.8 11A66.8 66.8 0 0067 80.5c2 3.7 4.4 6.8 7 9 2.6 2.3 5.2 3.6 7.9 4 2.6.4 5.3-.1 7.7-1.6 2.5-1.5 4.7-3.8 6.5-7 1.8-3 3.2-6.7 4.2-10.8a67 67 0 00-4.5-40.5c-1.9-3.7-4-6.8-6.5-9.2a17.2 17.2 0 00-7.5-4.6 12 12 0 00-8.3.8z"/>
    <radialGradient id="SVGID_17_" cx="110.5" cy="5.3" r="53.9" gradientTransform="scale(-1 1) rotate(17 -146.9 -699.6)" gradientUnits="userSpaceOnUse">
      <stop offset=".8" stop-color="#575757"/>
      <stop offset="1" stop-color="#363636"/>
    </radialGradient>
    <path fill="url(#SVGID_17_)" d="M82 94.6c-3-.4-6-1.8-8.8-4.2A33 33 0 0166 81 66.7 66.7 0 0161 37c1.2-4.4 3-8.2 5-11.3a16.3 16.3 0 019-6.8 14 14 0 017.9-.3c3.1 1 5.8 2.6 8.2 5 2.5 2.5 4.8 5.7 6.7 9.5a67 67 0 014.5 41c-1 4.4-2.5 8.1-4.4 11.3-2 3.3-4.4 5.9-7 7.5-1.1.6-2.2 1-3.3 1.4a13 13 0 01-5.7.4zM74 21a14.6 14.6 0 00-6.5 5.6c-2 2.9-3.7 6.5-4.8 10.8A65 65 0 0067.4 80c2 3.7 4.4 6.8 7 9 2.5 2.2 5.1 3.5 7.8 3.8 2.6.4 5.3-.1 7.7-1.6 2.5-1.5 4.7-3.8 6.5-6.9a38 38 0 004.2-10.7 65.3 65.3 0 00-4.4-40c-1.8-3.6-4-6.6-6.3-9a17 17 0 00-7.5-4.5 12.2 12.2 0 00-8.3.8z"/>
    <path fill="#666" d="M62.6 70.9a63.3 63.3 0 01-1.2-32.5c1.9-7.7 6.4-17.8 15.3-19l11.5-1.6c-6.3.9-10.4 6.5-12.7 12-2.7 6-3.7 12.6-3.9 19.1-.1 6.8.7 13.6 2.6 20.2 1.7 6 4.2 11.8 8 16.7 3.4 4.3 8.4 8.3 14.2 7.9l-8.6.6-3 .2c-3 .3-6-.8-8.5-2.4a28.3 28.3 0 01-8.6-9.5 51.3 51.3 0 01-5-11.7z"/>
    <g class="st18">
      <linearGradient id="SVGID_18_" x1="122.6" x2="132" y1="-32.1" y2="-32.1" gradientTransform="scale(-1 1) rotate(17 -146.9 -699.6)" gradientUnits="userSpaceOnUse">
        <stop offset="0" stop-color="#cfcfcf"/>
        <stop offset="1" stop-color="#c2c2c2"/>
      </linearGradient>
      <path fill="url(#SVGID_18_)" d="M75 19.4s.8-.4 3-.7c2.3-.4 4.4-.2 4.6-.2l1.9-.2-.9.4-8.6.7z"/>
      <linearGradient id="SVGID_19_" x1="138.3" x2="146.7" y1="-32.4" y2="44.5" gradientTransform="scale(-1 1) rotate(17 -146.9 -699.6)" gradientUnits="userSpaceOnUse">
        <stop offset=".3" stop-color="#a7b4b5"/>
        <stop offset="1" stop-color="#e8e8e8"/>
      </linearGradient>
      <path fill="url(#SVGID_19_)" d="M96 93.3H94 96zm-9.3.7h-2.1 2.2zm7.8-.7h-2.1.1l1.2-.1h.8zm-9.3.7h-2.1l1.3-.1h.8zm7.8-1l-1.2.2-.9-.2H93zm1.1.4l-6.6.5a13 13 0 01-5.2-.7l6.7-.5c2 .7 3.2.7 5.1.7zM87.2 92l-6.6.5c-2.2-1.1-3.2-2-5.2-3.6l6.7-.6c2.1 2 3.2 2.6 5.1 3.7zm-6.6-5.3l-6.8.5c-2-2.2-2.8-3.6-4.4-6.2l6.7-.6c1.7 3 2.7 4.1 4.5 6.3zm-5.8-8.8l-6.7.6c-1.6-3.3-2.2-5-3.4-8.6l6.8-.6c1.1 3.8 2 5.5 3.3 8.6zm-4.1-11.8l-6.8.7c-1-4-1.3-6.9-1.6-9.8l6.7-.8c.4 4.2 1 7 1.7 10zm-1.9-13l-6.7.7c-.1-4 .1-6.6.3-9.4l6.8-.8c-.4 3.8-.4 6.5-.4 9.4zm.8-12.5l-6.8.9c.7-3.6 1.4-5.8 2.1-8.1l6.7-1a52.6 52.6 0 00-2 8.3zm3-10.5l-6.7.9c1.3-3 2-4 3.6-6.2l6.6-1c-1.7 2.3-2.3 3.7-3.5 6.3zm10.2-10.8H82l-.6.1.8-.4 1.3-.2-.8.5zm-5.3 3l-2 .3-1.2.1-.6.1-1.1.2H72l-1.1.2c1.8-2 2.8-2.5 4.8-3.5l6.6-1c-2.1 1-3 2-4.8 3.6zm7.1-4l-.4.2c-.4 0-.8 0-1.3.2l.5-.2 1.2-.2zm-9.2 1.3l-.5.2-1.2.2.5-.2 1.2-.2zm20.8 73.6c-2.3.2-4.7-.3-7-1.5-2.3-1.1-4.6-3-6.7-5.3-2-2.4-4-5.4-5.7-8.8a67.8 67.8 0 01-4.2-41.8c1.1-4.3 2.8-8.1 4.8-11.1s4.5-5.2 7.3-6.5l-11 1.5c-1.3.8-3.2 1.7-5.5 4.3-16.3 18-7.6 70.2 17 70l11-.8z"/>
      <linearGradient id="SVGID_20_" x1="90.4" x2="101.9" y1="90.4" y2="90.4" gradientTransform="rotate(13.6 79.8 58.5)" gradientUnits="userSpaceOnUse">
        <stop offset="0" stop-color="#070a0a"/>
        <stop offset=".9" stop-color="#1c2829"/>
      </linearGradient>
      <path fill="url(#SVGID_20_)" d="M94.1 93.4c-2 0-3 0-5.1-.7l-6.7.5c2 .6 3 .9 5.2.7l6.6-.5z"/>
      <linearGradient id="SVGID_21_" x1="124.8" x2="137.1" y1="-31.1" y2="-31.1" gradientTransform="scale(-1 1) rotate(17 -146.9 -699.6)" gradientUnits="userSpaceOnUse">
        <stop offset="0" stop-color="#070a0a"/>
        <stop offset=".9" stop-color="#1c2829"/>
      </linearGradient>
      <path fill="url(#SVGID_21_)" d="M75.7 19.7l6.6-1c-2 1-3 1.6-4.8 3.6l-6.6 1c3.2-3.2 4.4-3.5 4.8-3.6z"/>
      <linearGradient id="SVGID_22_" x1="59.8" x2="68.1" y1="30.4" y2="30.4" gradientTransform="rotate(13.6 79.8 58.5)" gradientUnits="userSpaceOnUse">
        <stop offset="0" stop-color="#070a0a"/>
        <stop offset=".9" stop-color="#1c2829"/>
      </linearGradient>
      <path fill="url(#SVGID_22_)" d="M69.5 24.8l6.6-1a28.9 28.9 0 00-3.5 6.3l-6.7.9c2.7-5.6 3.6-6.2 3.6-6.2z"/>
      <linearGradient id="SVGID_23_" x1="59.2" x2="65.7" y1="40.6" y2="40.6" gradientTransform="rotate(13.6 79.8 58.5)" gradientUnits="userSpaceOnUse">
        <stop offset="0" stop-color="#070a0a"/>
        <stop offset=".9" stop-color="#1c2829"/>
      </linearGradient>
      <path fill="url(#SVGID_23_)" d="M65 33.4l6.6-1c-.7 2.4-1.4 4.6-2 8.2l-6.8.9c.5-2.6 1-5 2.1-8.1z"/>
      <linearGradient id="SVGID_24_" x1="59.6" x2="67.9" y1="52.3" y2="52.3" gradientTransform="rotate(13.6 79.8 58.5)" gradientUnits="userSpaceOnUse">
        <stop offset="0" stop-color="#070a0a"/>
        <stop offset=".9" stop-color="#1c2829"/>
      </linearGradient>
      <path fill="url(#SVGID_24_)" d="M62.4 44.4l6.8-.8c-.3 2.7-.5 5.4-.4 9.4l-6.7.8c0-2.9 0-5.6.3-9.4z"/>
      <g>
        <linearGradient id="SVGID_25_" x1="62.4" x2="72.7" y1="64.6" y2="64.6" gradientTransform="rotate(13.6 79.8 58.5)" gradientUnits="userSpaceOnUse">
          <stop offset="0" stop-color="#070a0a"/>
          <stop offset=".9" stop-color="#1c2829"/>
        </linearGradient>
        <path fill="url(#SVGID_25_)" d="M62.3 57l6.7-.8c.4 3 .7 5.8 1.7 10-2.3.1-4.5.4-6.8.6a73 73 0 01-1.6-9.8z"/>
      </g>
      <g>
        <linearGradient id="SVGID_26_" x1="67.9" x2="79.5" y1="75.8" y2="75.8" gradientTransform="rotate(13.6 79.8 58.5)" gradientUnits="userSpaceOnUse">
          <stop offset="0" stop-color="#070a0a"/>
          <stop offset=".9" stop-color="#1c2829"/>
        </linearGradient>
        <path fill="url(#SVGID_26_)" d="M64.7 70l6.8-.7c1.1 3.5 1.7 5.3 3.3 8.6l-6.7.6c-1.4-3-2.2-4.7-3.4-8.6z"/>
      </g>
      <g>
        <linearGradient id="SVGID_27_" x1="75" x2="87.2" y1="84.2" y2="84.2" gradientTransform="rotate(13.6 79.8 58.5)" gradientUnits="userSpaceOnUse">
          <stop offset="0" stop-color="#070a0a"/>
          <stop offset=".9" stop-color="#1c2829"/>
        </linearGradient>
        <path fill="url(#SVGID_27_)" d="M69.4 81l6.7-.6c1.6 2.6 2.4 4 4.5 6.3l-6.8.5a36.6 36.6 0 01-4.4-6.2z"/>
      </g>
      <g>
        <linearGradient id="SVGID_28_" x1="82.7" x2="94.9" y1="89.2" y2="89.2" gradientTransform="rotate(13.6 79.8 58.5)" gradientUnits="userSpaceOnUse">
          <stop offset="0" stop-color="#070a0a"/>
          <stop offset=".9" stop-color="#1c2829"/>
        </linearGradient>
        <path fill="url(#SVGID_28_)" d="M75.4 88.9l6.7-.6c2 1.7 3 2.6 5.1 3.7l-6.6.5c-2-1.1-3.1-1.7-5.2-3.6z"/>
      </g>
    </g>
    <radialGradient id="SVGID_29_" cx="123.9" cy="-19.8" r="8.9" gradientTransform="scale(-1 1) rotate(17 -146.9 -699.6)" gradientUnits="userSpaceOnUse">
      <stop offset="0" stop-color="#bdbdbd"/>
      <stop offset=".2" stop-color="#b9b9b9"/>
      <stop offset=".4" stop-color="#acacac"/>
      <stop offset=".7" stop-color="#989898"/>
      <stop offset=".9" stop-color="#7b7b7b"/>
      <stop offset="1" stop-color="#696969"/>
    </radialGradient>
    <path fill="url(#SVGID_29_)" d="M85.5 24.3c2.2-1.1 4.8 1.2 5.7 5.3 1 4 0 8.3-2.3 9.4-2.2 1.1-4.8-1.2-5.7-5.3-1-4 0-8.3 2.3-9.4z"/>
    <linearGradient id="SVGID_30_" x1="120.3" x2="129.2" y1="-17.5" y2="-17.5" gradientTransform="scale(-1 1) rotate(17 -146.9 -699.6)" gradientUnits="userSpaceOnUse">
      <stop offset="0" stop-color="#070a0a"/>
      <stop offset=".9" stop-color="#1c2829"/>
    </linearGradient>
    <path fill="url(#SVGID_30_)" d="M84.8 24.8c2.2-1.2 4.7 1.2 5.7 5.3 1 4 0 8.3-2.3 9.4-2.2 1.1-4.8-1.2-5.7-5.3-1-4 0-8.3 2.3-9.4z"/>
    <radialGradient id="SVGID_31_" cx="110.4" cy="-458.7" r="12" gradientTransform="matrix(-.9563 .2923 .3097 1.013 350.3 468.3)" gradientUnits="userSpaceOnUse">
      <stop offset="0" stop-color="#bdbdbd"/>
      <stop offset=".2" stop-color="#b9b9b9"/>
      <stop offset=".4" stop-color="#acacac"/>
      <stop offset=".7" stop-color="#989898"/>
      <stop offset=".9" stop-color="#7b7b7b"/>
      <stop offset="1" stop-color="#696969"/>
    </radialGradient>
    <path fill="url(#SVGID_31_)" d="M99.6 30.5c1.4-.7 3 0 4.3 2 2 3 2.3 7.7.9 10.8-.5 1-1 1.6-1.8 2-1.4.7-3 0-4.3-2-2-2.9-2.3-7.7-.9-10.7.5-1 1.1-1.7 1.8-2z"/>
    <linearGradient id="SVGID_32_" x1="108.7" x2="117.6" y1="-7.5" y2="-7.5" gradientTransform="scale(-1 1) rotate(17 -146.9 -699.6)" gradientUnits="userSpaceOnUse">
      <stop offset="0" stop-color="#070a0a"/>
      <stop offset=".9" stop-color="#1c2829"/>
    </linearGradient>
    <path fill="url(#SVGID_32_)" d="M98.8 31c1.4-.8 3-.2 4.4 1.8 1.9 3 2.3 7.8.8 10.8-.4 1-1 1.7-1.7 2-1.4.7-3.1.1-4.4-1.9-2-3-2.3-7.8-.9-10.8.5-1 1.1-1.6 1.8-2z"/>
    <g>
      <radialGradient id="SVGID_33_" cx="114.1" cy="16.4" r="11.2" gradientTransform="scale(-1 1) rotate(17 -146.9 -699.6)" gradientUnits="userSpaceOnUse">
        <stop offset="0" stop-color="#bdbdbd"/>
        <stop offset=".2" stop-color="#b9b9b9"/>
        <stop offset=".4" stop-color="#acacac"/>
        <stop offset=".7" stop-color="#989898"/>
        <stop offset=".9" stop-color="#7b7b7b"/>
        <stop offset="1" stop-color="#696969"/>
      </radialGradient>
      <path fill="url(#SVGID_33_)" d="M105.2 54.5c.6-.4 1.4-.4 2.2 0 2.4 1 4.1 5.2 3.8 9.2-.2 2.8-1.2 4.8-2.6 5.5-.7.3-1.5.4-2.2 0-2.4-1-4.2-5.2-3.9-9.3.2-2.7 1.3-4.7 2.7-5.4z"/>
      <linearGradient id="SVGID_34_" x1="110.1" x2="119" y1="17.2" y2="17.2" gradientTransform="scale(-1 1) rotate(17 -146.9 -699.6)" gradientUnits="userSpaceOnUse">
        <stop offset="0" stop-color="#070a0a"/>
        <stop offset=".9" stop-color="#1c2829"/>
      </linearGradient>
      <path fill="url(#SVGID_34_)" d="M104.7 55c.6-.4 1.4-.5 2.2-.1 2.4 1 4.1 5.2 3.8 9.3-.2 2.7-1.2 4.8-2.6 5.5-.7.3-1.5.3-2.3 0-2.3-1-4-5.2-3.8-9.3.2-2.8 1.3-4.8 2.7-5.5z"/>
    </g>
    <g>
      <radialGradient id="SVGID_35_" cx="127.2" cy="30.9" r="9.8" gradientTransform="scale(-1 1) rotate(17 -146.9 -699.6)" gradientUnits="userSpaceOnUse">
        <stop offset="0" stop-color="#bdbdbd"/>
        <stop offset=".2" stop-color="#b9b9b9"/>
        <stop offset=".4" stop-color="#acacac"/>
        <stop offset=".7" stop-color="#989898"/>
        <stop offset=".9" stop-color="#7b7b7b"/>
        <stop offset="1" stop-color="#696969"/>
      </radialGradient>
      <path fill="url(#SVGID_35_)" d="M96.6 72.2c2.3-1.1 4.8 1.2 5.8 5.3 1 4-.1 8.3-2.3 9.4-2.3 1.2-4.8-1.2-5.8-5.3-1-4 .1-8.3 2.3-9.4z"/>
      <linearGradient id="SVGID_36_" x1="123.6" x2="132.5" y1="31.3" y2="31.3" gradientTransform="scale(-1 1) rotate(17 -146.9 -699.6)" gradientUnits="userSpaceOnUse">
        <stop offset="0" stop-color="#070a0a"/>
        <stop offset=".9" stop-color="#1c2829"/>
      </linearGradient>
      <path fill="url(#SVGID_36_)" d="M96 72.4c2.1-1.1 4.7 1.3 5.7 5.3.9 4.1-.1 8.3-2.4 9.4-2.2 1.2-4.7-1.2-5.7-5.3-1-4 .1-8.2 2.3-9.4z"/>
    </g>
    <g>
      <radialGradient id="SVGID_37_" cx="139.3" cy="20.1" r="10.7" gradientTransform="scale(-1 1) rotate(17 -146.9 -699.6)" gradientUnits="userSpaceOnUse">
        <stop offset="0" stop-color="#bdbdbd"/>
        <stop offset=".2" stop-color="#b9b9b9"/>
        <stop offset=".4" stop-color="#acacac"/>
        <stop offset=".7" stop-color="#989898"/>
        <stop offset=".9" stop-color="#7b7b7b"/>
        <stop offset="1" stop-color="#696969"/>
      </radialGradient>
      <path fill="url(#SVGID_37_)" d="M82.5 66c1.4-.7 3 0 4.4 2 1.9 2.9 2.3 7.7.8 10.7-.4 1-1 1.7-1.7 2-1.4.7-3 .1-4.4-1.9-1.9-3-2.3-7.8-.8-10.8.4-1 1-1.7 1.7-2z"/>
      <linearGradient id="SVGID_38_" x1="135.3" x2="144.2" y1="21.6" y2="21.6" gradientTransform="scale(-1 1) rotate(17 -146.9 -699.6)" gradientUnits="userSpaceOnUse">
        <stop offset="0" stop-color="#070a0a"/>
        <stop offset=".9" stop-color="#1c2829"/>
      </linearGradient>
      <path fill="url(#SVGID_38_)" d="M81.9 66.5c1.4-.7 3 0 4.3 2 2 2.9 2.3 7.7.9 10.7-.5 1-1.1 1.7-1.8 2-1.4.7-3 .1-4.3-1.9-2-3-2.3-7.8-.9-10.8.5-1 1.1-1.6 1.8-2z"/>
    </g>
    <g>
      <radialGradient id="SVGID_39_" cx="137.4" cy="-4" r="11.7" gradientTransform="scale(-1 1) rotate(17 -146.9 -699.6)" gradientUnits="userSpaceOnUse">
        <stop offset="0" stop-color="#bdbdbd"/>
        <stop offset=".2" stop-color="#b9b9b9"/>
        <stop offset=".4" stop-color="#acacac"/>
        <stop offset=".7" stop-color="#989898"/>
        <stop offset=".9" stop-color="#7b7b7b"/>
        <stop offset="1" stop-color="#696969"/>
      </radialGradient>
      <path fill="url(#SVGID_39_)" d="M77 42c.7-.3 1.4-.3 2.2 0 2.4 1 4.1 5.3 3.8 9.3-.2 2.8-1.2 4.8-2.6 5.5-.7.3-1.5.4-2.2 0-2.4-1-4.1-5.2-3.9-9.3.2-2.7 1.3-4.7 2.7-5.4z"/>
      <linearGradient id="SVGID_40_" x1="133.7" x2="142.7" y1="-2.9" y2="-2.9" gradientTransform="scale(-1 1) rotate(17 -146.9 -699.6)" gradientUnits="userSpaceOnUse">
        <stop offset="0" stop-color="#070a0a"/>
        <stop offset=".9" stop-color="#1c2829"/>
      </linearGradient>
      <path fill="url(#SVGID_40_)" d="M76.2 42.6c.7-.3 1.4-.4 2.2 0 2.4 1 4.1 5.2 3.8 9.3-.2 2.7-1.2 4.7-2.6 5.4-.7.4-1.4.4-2.2 0-2.4-1-4.1-5.1-3.8-9.2.2-2.8 1.2-4.8 2.6-5.5z"/>
    </g>
    <linearGradient id="SVGID_41_" x1="144.5" x2="104.2" y1="6.6" y2="7.1" gradientTransform="scale(-1 1) rotate(17 -146.9 -699.6)" gradientUnits="userSpaceOnUse">
      <stop offset=".3" stop-color="#a7b4b5"/>
      <stop offset="1" stop-color="#e8e8e8"/>
    </linearGradient>
    <path fill="url(#SVGID_41_)" d="M100 87c-2.2 1-4.7-1.3-5.7-5.4-1-4 .1-8.3 2.3-9.4 2.3-1.1 4.8 1.2 5.8 5.3 1 4-.1 8.3-2.3 9.4zm8.6-17.8c-.7.3-1.5.4-2.2 0-2.4-1-4.2-5.2-3.9-9.3.2-2.7 1.3-4.7 2.7-5.4.6-.4 1.4-.4 2.2 0 2.4 1 4.1 5.2 3.8 9.2-.2 2.8-1.2 4.8-2.6 5.5zM86 80.7c-1.4.7-3 .1-4.4-1.9-1.9-3-2.3-7.8-.8-10.8.4-1 1-1.6 1.7-2 1.4-.7 3 0 4.4 2 1.9 2.9 2.3 7.7.8 10.7-.4 1-1 1.7-1.7 2zm9.6-13c-3.6 1.8-7.9-2-9.4-8.7-1.6-6.7.1-13.6 3.8-15.4 3.6-1.9 7.8 2 9.4 8.7 1.5 6.6-.2 13.5-3.8 15.4zm7.4-22.4c-1.4.7-3 0-4.3-2-2-2.9-2.3-7.7-.9-10.7.5-1 1.1-1.7 1.8-2 1.4-.8 3-.1 4.3 1.9 2 3 2.3 7.7.9 10.8-.5 1-1 1.6-1.8 2zM80.4 56.8c-.7.3-1.5.4-2.2 0-2.4-1-4.1-5.2-3.9-9.3.2-2.7 1.3-4.7 2.7-5.4.7-.4 1.4-.4 2.2 0 2.4 1 4.1 5.2 3.8 9.2-.2 2.8-1.2 4.8-2.6 5.5zm8.5-17.7c-2.2 1-4.8-1.3-5.7-5.3-1-4.1 0-8.3 2.3-9.5 2.2-1 4.8 1.3 5.7 5.4 1 4 0 8.2-2.3 9.4zm-4.7-20.2c-11 5.6-16.2 26.7-11.5 47C77.5 86 90.3 98 101.3 92.3c11.1-5.7 16.3-26.7 11.5-47-4.7-20.3-17.5-32.1-28.6-26.5z"/>
    <g>
      <path d="M98.8 63.8l-8.5-20.6s-4.9.4-6 8c-.4 2.5-.7 7.2 1.2 12 1.8 4.3 4.6 6.2 6.4 6.2 5.3 0 7-5.6 7-5.6z" opacity=".1"/>
      <radialGradient id="SVGID_42_" cx="123.7" cy="7.9" r="15.4" gradientTransform="scale(-1 1) rotate(17 -146.9 -699.6)" gradientUnits="userSpaceOnUse">
        <stop offset=".4" stop-color="#5c5c5c"/>
        <stop offset="1" stop-color="#a3a3a3"/>
      </radialGradient>
      <path fill="url(#SVGID_42_)" d="M94.3 66.3c-.4.2-1-.3-1.1-1.1-.2-.8 0-1.7.4-1.9.5-.2 1 .3 1.2 1 .2.9 0 1.7-.5 2zm2.2-2.4c-.3.1-.7 0-1-.4-.3-.6-.4-1.6 0-2.2 0-.2.1-.3.3-.4.2-.2.6 0 .8.4.4.6.5 1.5.2 2.2 0 .2-.2.3-.3.4zm-4.8 2.4h-.5c-.5-.2-.8-1-.8-1.9 0-.5.3-1 .6-1 .1-.1.3-.1.4 0 .5.1.8 1 .8 1.8 0 .6-.3 1-.5 1.1zm5.8-6.6H97c-.5-.2-.8-1-.8-1.8 0-.6.3-1 .6-1.1.1-.1.3-.1.4 0 .5.2.8 1 .8 1.8 0 .6-.3 1-.5 1.1zM89 64c-.2.1-.6 0-.8-.4-.4-.6-.5-1.6-.2-2.2 0-.2.2-.3.3-.4.3-.1.7 0 1 .4.3.6.4 1.6.1 2.2l-.4.4zm8-9c-.5.2-1-.3-1.2-1.1-.2-.8 0-1.7.5-1.9.4-.2 1 .2 1.1 1 .2.9 0 1.7-.4 2zm-9.6 4.9c-.5.2-1-.3-1.2-1.1-.2-.8 0-1.7.5-1.9.4-.2 1 .3 1.1 1 .2.9 0 1.7-.4 2zm5.7 1.3c-1.6.9-3.5-.9-4.2-3.8-.6-3 .1-6 1.7-6.8 1.6-.8 3.4 1 4.1 3.9.7 2.9 0 6-1.6 6.7zM95.4 51c-.3.1-.6 0-.9-.4-.4-.6-.4-1.6-.2-2.2l.4-.4c.3-.1.6 0 .9.4.4.6.4 1.6.2 2.2l-.4.4zM87.1 55h-.5c-.5-.2-.8-1-.7-1.9 0-.5.2-1 .5-1 .1-.1.3-.1.4 0 .5.2.9 1 .8 1.8 0 .6-.2 1-.5 1.1zm5.8-6.6h-.5c-.4-.2-.8-1-.7-1.8 0-.6.2-1 .5-1.1.1-.1.3-.1.4 0 .5.2.9 1 .8 1.8 0 .6-.2 1-.5 1.1zM88 51c-.3.1-.6 0-.9-.4-.4-.6-.5-1.6-.2-2.2l.4-.4c.3-.1.6 0 .9.4.3.6.4 1.6.1 2.2 0 .2-.2.3-.3.4zm2.1-2.4c-.4.2-1-.3-1.1-1.1-.2-.8 0-1.7.4-1.9.5-.2 1 .2 1.2 1 .2.9 0 1.7-.5 2z"/>
      <linearGradient id="SVGID_43_" x1="124.1" x2="125.9" y1="-2.2" y2="-2.2" gradientTransform="scale(-1 1) rotate(17 -146.9 -699.6)" gradientUnits="userSpaceOnUse">
        <stop offset="0" stop-color="#4d4d4d"/>
        <stop offset="1" stop-color="#303030"/>
      </linearGradient>
      <path fill="url(#SVGID_43_)" d="M90.4 45.4c.4-.3 1 .2 1.1 1 .2.8 0 1.7-.4 2-.5.1-1-.3-1.2-1.2-.2-.8 0-1.6.5-1.8z"/>
      <linearGradient id="SVGID_44_" x1="121.5" x2="123.3" y1="-1.4" y2="-1.4" gradientTransform="scale(-1 1) rotate(17 -146.9 -699.6)" gradientUnits="userSpaceOnUse">
        <stop offset="0" stop-color="#4d4d4d"/>
        <stop offset="1" stop-color="#303030"/>
      </linearGradient>
      <path fill="url(#SVGID_44_)" d="M93 45.3h.5c.5.2.8 1 .8 1.9 0 .5-.3 1-.6 1 0 .1-.2.1-.4 0-.5-.1-.8-1-.8-1.8 0-.5.3-1 .6-1z"/>
      <linearGradient id="SVGID_45_" x1="120" x2="121.3" y1=".2" y2="2.7" gradientTransform="scale(-1 1) rotate(17 -146.9 -699.6)" gradientUnits="userSpaceOnUse">
        <stop offset="0" stop-color="#4d4d4d"/>
        <stop offset="1" stop-color="#303030"/>
      </linearGradient>
      <path fill="url(#SVGID_45_)" d="M95.6 47.6c.3-.1.6 0 .8.4.4.6.5 1.6.2 2.2 0 .2-.2.3-.3.4-.3.1-.7 0-1-.4-.3-.6-.4-1.6 0-2.2 0-.2.1-.3.3-.4z"/>
      <linearGradient id="SVGID_46_" x1="119.4" x2="121.2" y1="5.9" y2="5.9" gradientTransform="scale(-1 1) rotate(17 -146.9 -699.6)" gradientUnits="userSpaceOnUse">
        <stop offset="0" stop-color="#4d4d4d"/>
        <stop offset="1" stop-color="#303030"/>
      </linearGradient>
      <path fill="url(#SVGID_46_)" d="M97.2 51.7c.5-.2 1 .3 1.2 1 .2.9 0 1.7-.5 2s-1-.3-1.1-1.1c-.2-.8 0-1.7.4-1.9z"/>
      <linearGradient id="SVGID_47_" x1="120.4" x2="122.2" y1="10.5" y2="10.5" gradientTransform="scale(-1 1) rotate(17 -146.9 -699.6)" gradientUnits="userSpaceOnUse">
        <stop offset="0" stop-color="#4d4d4d"/>
        <stop offset="1" stop-color="#303030"/>
      </linearGradient>
      <path fill="url(#SVGID_47_)" d="M97.6 56.4h.5c.5.2.8 1 .7 1.9 0 .6-.2 1-.5 1.1H98c-.5-.2-.9-1-.8-1.9 0-.5.2-1 .5-1z"/>
      <linearGradient id="SVGID_48_" x1="122.6" x2="124.4" y1="14.2" y2="14.2" gradientTransform="scale(-1 1) rotate(17 -146.9 -699.6)" gradientUnits="userSpaceOnUse">
        <stop offset="0" stop-color="#4d4d4d"/>
        <stop offset="1" stop-color="#303030"/>
      </linearGradient>
      <path fill="url(#SVGID_48_)" d="M96.6 60.6c.3-.2.6 0 .9.3.4.6.4 1.6.2 2.2l-.4.4c-.3.2-.6 0-.9-.4-.4-.6-.4-1.5-.1-2.1 0-.2.2-.4.3-.4z"/>
      <linearGradient id="SVGID_49_" x1="125.3" x2="127.1" y1="15.8" y2="15.8" gradientTransform="scale(-1 1) rotate(17 -146.9 -699.6)" gradientUnits="userSpaceOnUse">
        <stop offset="0" stop-color="#4d4d4d"/>
        <stop offset="1" stop-color="#303030"/>
      </linearGradient>
      <path fill="url(#SVGID_49_)" d="M94.5 63c.4-.3 1 .2 1.1 1 .2.8 0 1.7-.4 2s-1-.3-1.2-1.2c-.2-.8 0-1.6.5-1.8z"/>
      <linearGradient id="SVGID_50_" x1="127.9" x2="129.7" y1="15.1" y2="15.1" gradientTransform="scale(-1 1) rotate(17 -146.9 -699.6)" gradientUnits="userSpaceOnUse">
        <stop offset="0" stop-color="#4d4d4d"/>
        <stop offset="1" stop-color="#303030"/>
      </linearGradient>
      <path fill="url(#SVGID_50_)" d="M91.8 63h.5c.4.2.8 1 .7 1.9 0 .5-.2 1-.5 1H92c-.4-.1-.8-1-.7-1.8 0-.6.2-1 .5-1z"/>
      <linearGradient id="SVGID_51_" x1="129.6" x2="131.4" y1="12.1" y2="12.1" gradientTransform="scale(-1 1) rotate(17 -146.9 -699.6)" gradientUnits="userSpaceOnUse">
        <stop offset="0" stop-color="#4d4d4d"/>
        <stop offset="1" stop-color="#303030"/>
      </linearGradient>
      <path fill="url(#SVGID_51_)" d="M89.3 60.7c.3-.2.6 0 .9.4.4.6.4 1.5.1 2.1 0 .2-.2.4-.3.4-.3.2-.6 0-.9-.3-.4-.6-.4-1.6-.2-2.2l.4-.4z"/>
      <linearGradient id="SVGID_52_" x1="130" x2="131.8" y1="7.8" y2="7.8" gradientTransform="scale(-1 1) rotate(17 -146.9 -699.6)" gradientUnits="userSpaceOnUse">
        <stop offset="0" stop-color="#4d4d4d"/>
        <stop offset="1" stop-color="#303030"/>
      </linearGradient>
      <path fill="url(#SVGID_52_)" d="M87.6 56.6c.5-.2 1 .3 1.2 1 .2.9 0 1.7-.5 2-.4.2-1-.3-1.1-1.1-.2-.8 0-1.7.4-1.9z"/>
      <linearGradient id="SVGID_53_" x1="129" x2="130.8" y1="3.1" y2="3.1" gradientTransform="scale(-1 1) rotate(17 -146.9 -699.6)" gradientUnits="userSpaceOnUse">
        <stop offset="0" stop-color="#4d4d4d"/>
        <stop offset="1" stop-color="#303030"/>
      </linearGradient>
      <path fill="url(#SVGID_53_)" d="M87.3 51.9s.2-.1.4 0c.5.2.8 1 .8 1.8 0 .6-.3 1-.6 1.1-.1.1-.3.1-.4 0-.5-.2-.8-1-.8-1.8 0-.6.3-1 .6-1.1z"/>
      <linearGradient id="SVGID_54_" x1="126.8" x2="128.6" y1="-.5" y2="-.5" gradientTransform="scale(-1 1) rotate(17 -146.9 -699.6)" gradientUnits="userSpaceOnUse">
        <stop offset="0" stop-color="#4d4d4d"/>
        <stop offset="1" stop-color="#303030"/>
      </linearGradient>
      <path fill="url(#SVGID_54_)" d="M88.3 47.8c.2-.2.6 0 .8.3.4.6.5 1.6.2 2.2 0 .2-.2.3-.4.4-.2.2-.6 0-.8-.4-.4-.6-.5-1.5-.2-2.1.1-.2.2-.4.4-.4z"/>
      <g>
        <linearGradient id="SVGID_55_" x1="132.6" x2="119.6" y1="16.6" y2="-1.6" gradientTransform="scale(-1 1) rotate(17 -146.9 -699.6)" gradientUnits="userSpaceOnUse">
          <stop offset=".3" stop-color="#a7b4b5"/>
          <stop offset="1" stop-color="#e8e8e8"/>
        </linearGradient>
        <path fill="url(#SVGID_55_)" d="M94 61c-1.6.7-3.4-1-4.1-3.9-.7-3 0-6 1.6-6.7 1.6-.9 3.5.9 4.2 3.8.6 2.9-.1 5.9-1.7 6.7zm-4-17.4c-3.7 1.8-5.4 8.7-3.8 15.4 1.5 6.6 5.8 10.5 9.4 8.7 3.6-1.9 5.3-8.8 3.8-15.4-1.6-6.7-5.8-10.6-9.4-8.7z"/>
      </g>
      <linearGradient id="SVGID_56_" x1="121.3" x2="129.9" y1="6.8" y2="6.8" gradientTransform="scale(-1 1) rotate(17 -146.9 -699.6)" gradientUnits="userSpaceOnUse">
        <stop offset="0" stop-color="#070a0a"/>
        <stop offset=".9" stop-color="#1c2829"/>
      </linearGradient>
      <path fill="url(#SVGID_56_)" d="M91.1 48.6c2.2-1 4.6 1.2 5.5 5 1 4 0 8-2.2 9-2.1 1.2-4.6-1.1-5.5-5-.9-3.9.1-8 2.2-9z"/>
    </g>
    <g>
      <path d="M93.3 94.6c-2.9-.4-5.7-1.9-8.4-4.2a33.6 33.6 0 01-7.3-9.5 68.4 68.4 0 01-5-44c1.1-4.5 2.7-8.3 4.8-11.4a18 18 0 017.5-6.6c2.8-1.2 5.8-1.4 8.7-.5 2.8.8 5.5 2.5 8 5.1a37 37 0 016.7 9.6 68.5 68.5 0 014.7 41.1c-1 4.4-2.4 8.1-4.2 11.2-2 3.4-4.3 5.9-7 7.4a12.2 12.2 0 01-8.6 1.8zm-8-74.7c-2.5 1.2-5 3.3-7 6.2-2 3-3.5 6.7-4.6 11a67.3 67.3 0 005 43.2c2 3.8 4.3 7 7 9.2 2.5 2.2 5.1 3.6 7.8 4 2.7.4 5.3-.1 7.8-1.6s4.6-3.9 6.5-7c1.7-3 3.1-6.7 4-10.9a67.5 67.5 0 00-4.6-40.4c-1.8-3.7-4-6.8-6.3-9.3a18 18 0 00-7.6-4.8 11.3 11.3 0 00-8 .4z" class="st60"/>
      <linearGradient id="SVGID_57_" x1="102.8" x2="148.5" y1="6.9" y2="6.9" gradientTransform="scale(-1 1) rotate(17 -146.9 -699.6)" gradientUnits="userSpaceOnUse">
        <stop offset=".3" stop-color="#a7b4b5"/>
        <stop offset="1" stop-color="#e8e8e8"/>
      </linearGradient>
      <path fill="url(#SVGID_57_)" d="M93.5 94.6c-3-.5-5.8-2-8.6-4.3a33.8 33.8 0 01-7.4-9.7 69 69 0 01-5-44.6c1.1-4.5 2.8-8.3 5-11.4 2.1-3.2 4.7-5.5 7.6-6.8 2.8-1.2 5.8-1.4 8.8-.5 2.9.9 5.6 2.6 8.2 5.2 2.5 2.6 4.8 5.9 6.7 9.8a69.1 69.1 0 014.7 41.7 40 40 0 01-4.3 11.3c-2 3.3-4.3 5.8-7 7.5a12.5 12.5 0 01-8.7 1.8zm-8-75.7c-2.6 1.2-5 3.3-7.1 6.3-2 3-3.7 6.7-4.8 11a67.7 67.7 0 005 43.8c2 4 4.4 7 7 9.4a16 16 0 008 4c2.8.4 5.5-.1 8-1.6 2.5-1.6 4.8-4 6.6-7.1a39 39 0 004.2-11 68 68 0 00-4.6-41 36 36 0 00-6.5-9.3c-2.5-2.5-5-4.2-7.7-5a11.5 11.5 0 00-8 .5z"/>
    </g>
    <linearGradient id="SVGID_58_" x1="104.6" x2="111.2" y1="-6.4" y2="-6.4" gradientTransform="scale(-1 1) rotate(17 -146.9 -699.6)" gradientUnits="userSpaceOnUse">
      <stop offset=".3" stop-color="#a7b4b5"/>
      <stop offset="1" stop-color="#e8e8e8"/>
    </linearGradient>
    <path fill="url(#SVGID_58_)" d="M113 54.3l-.2-1.6a63.5 63.5 0 00-5.8-19.5 51.6 51.6 0 00-5-7.8 20.5 20.5 0 00-4-3.6l-.4-.2a111.1 111.1 0 001.3 1 21.9 21.9 0 014.6 5.2 47.4 47.4 0 014.6 8.7 44.5 44.5 0 012.4 6.4 71.7 71.7 0 012.2 9.8l.2 1.6z"/>
    <linearGradient id="SVGID_59_" x1="126.8" x2="139" y1="-32.9" y2="-32.9" gradientTransform="scale(-1 1) rotate(17 -146.9 -699.6)" gradientUnits="userSpaceOnUse">
      <stop offset="0" stop-color="#c7c7c7"/>
      <stop offset=".4" stop-color="#b9b9b9"/>
      <stop offset="1" stop-color="#ababab"/>
    </linearGradient>
    <path fill="url(#SVGID_59_)" d="M80 18.1h-.6a14.7 14.7 0 00-3.3.2 11.7 11.7 0 00-3.3 1.2 18.2 18.2 0 00-2.6 1.7c-.5.3-.8.7-1 .9l-.5.4.4-.4a65.8 65.8 0 012-1.3l.8-.5a23.6 23.6 0 012-1l.6-.2.6-.2a15 15 0 014.3-.8h.6z"/>
  </g>
  <g>
    <linearGradient id="SVGID_60_" x1="222" x2="319.5" y1="254.2" y2="183.1" gradientTransform="matrix(-1 0 0 1 481.8 0)" gradientUnits="userSpaceOnUse">
      <stop offset=".3" stop-color="#a7b4b5"/>
      <stop offset="1" stop-color="#e8e8e8"/>
    </linearGradient>
    <path fill="url(#SVGID_60_)" d="M230.3 191.2s-2.9 32.9-2.3 41.7c.7 8.8-8.7 19.2-13.2 25.6-4.4 6.3-20.4-11.2-20.8-18.4-.4-7 0-25.9 0-25.9s31.5-33.8 36.3-23z"/>
    <linearGradient id="SVGID_61_" x1="233.1" x2="276.5" y1="278.3" y2="246.6" gradientTransform="scale(-1 1) rotate(-4.8 -31.9 5826.4)" gradientUnits="userSpaceOnUse">
      <stop offset="0" stop-color="#1c2829"/>
      <stop offset="1" stop-color="#3b5557"/>
    </linearGradient>
    <path fill="url(#SVGID_61_)" d="M215.1 255.2c7 .7 12.5 1.2 12.8 5 .2 3.7-6.5.5-18.1.7-11.6.3-2.1-6.5 5.3-5.7z"/>
    <linearGradient id="SVGID_62_" x1="105" x2="202.5" y1="254.2" y2="183.1" gradientUnits="userSpaceOnUse">
      <stop offset=".3" stop-color="#a7b4b5"/>
      <stop offset="1" stop-color="#e8e8e8"/>
    </linearGradient>
    <path fill="url(#SVGID_62_)" d="M134.5 191.2s2.9 32.9 2.3 41.7c-.7 8.8 8.7 19.2 13.2 25.6 4.4 6.3 20.4-11.2 20.8-18.4.4-7 0-25.9 0-25.9s-31.6-33.8-36.3-23z"/>
    <linearGradient id="SVGID_63_" x1="103.8" x2="348.2" y1="242.4" y2="64.1" gradientTransform="rotate(-14.2 211.4 112.2)" gradientUnits="userSpaceOnUse">
      <stop offset=".3" stop-color="#a7b4b5"/>
      <stop offset="1" stop-color="#e8e8e8"/>
    </linearGradient>
    <path fill="url(#SVGID_63_)" d="M216 123.8a290 290 0 00-4.2 63.1v.8l9.8 35.7c.2.8 32-34.7 31.2-86.6-.8-52-30.7-47.8-36.9-13z"/>
    <linearGradient id="SVGID_64_" x1="166.9" x2="249.9" y1="177.7" y2="212.7" gradientTransform="rotate(-14.2 211.4 112.2)" gradientUnits="userSpaceOnUse">
      <stop offset="0" stop-color="#1c2829"/>
      <stop offset="1" stop-color="#3b5557"/>
    </linearGradient>
    <path fill="url(#SVGID_64_)" d="M241.6 191.3l-30-15.6c0 5.7.1 9.6.2 11.2v.8l3.4 12.3 17.2 9c3-4.9 6.2-10.8 9.2-17.7z"/>
    <linearGradient id="SVGID_65_" x1="189.1" x2="287.4" y1="105.3" y2="146.8" gradientTransform="rotate(-14.2 211.4 112.2)" gradientUnits="userSpaceOnUse">
      <stop offset="0" stop-color="#1c2829"/>
      <stop offset="1" stop-color="#3b5557"/>
    </linearGradient>
    <path fill="url(#SVGID_65_)" d="M252.8 136.8a82.8 82.8 0 00-3.4-24.2L227 101c-4 3.4-7.6 9.3-9.8 17.3l35.6 18.5z"/>
    <linearGradient id="SVGID_66_" x1="172.5" x2="276.4" y1="139.1" y2="183" gradientTransform="rotate(-14.2 211.4 112.2)" gradientUnits="userSpaceOnUse">
      <stop offset="0" stop-color="#1c2829"/>
      <stop offset="1" stop-color="#3b5557"/>
    </linearGradient>
    <path fill="url(#SVGID_66_)" d="M212 157l35.4 18.4c1.9-6.3 3.4-13 4.3-20.2l-37.6-19.5c-1 7.6-1.7 14.8-2 21.3z"/>
    <linearGradient id="SVGID_67_" x1="186.9" x2="235" y1="148.4" y2="168.7" gradientTransform="rotate(-14.2 211.4 112.2)" gradientUnits="userSpaceOnUse">
      <stop offset="0" stop-color="#1c2829"/>
      <stop offset="1" stop-color="#3b5557"/>
    </linearGradient>
    <path fill="url(#SVGID_67_)" d="M216 123.8a290 290 0 00-4.2 63.1v.8l8.4 30.7c-.8-22.2-1.3-82.9 15.3-120.7-8.1-.3-16.6 9.3-19.6 26z" opacity=".3"/>
    <linearGradient id="SVGID_68_" x1="116.1" x2="260.2" y1="239.9" y2="79.2" gradientUnits="userSpaceOnUse">
      <stop offset=".3" stop-color="#a7b4b5"/>
      <stop offset="1" stop-color="#e8e8e8"/>
    </linearGradient>
    <path fill="url(#SVGID_68_)" d="M156.2 95.1c-31.6 19-26.3 110.4-12.6 124.2 13.8 13.8 69.2 9.6 77.4 5 16.6-9.4-2.6-112-13.1-124C197.4 88 164.5 90 156.2 95z"/>
    <linearGradient id="SVGID_69_" x1="84.1" x2="260.6" y1="241.5" y2="112.7" gradientUnits="userSpaceOnUse">
      <stop offset="0" stop-color="#1c2829"/>
      <stop offset="1" stop-color="#3b5557"/>
    </linearGradient>
    <path fill="url(#SVGID_69_)" d="M227.4 202.3c-70.3 25.7-98.3-33.1-87.5-84.4-12.4 34.2-6.8 90.8 3.7 101.4 13.8 13.8 69.2 9.6 77.4 5 4.2-2.3 6.1-10.7 6.4-22z" opacity=".1"/>
    <linearGradient id="SVGID_70_" x1="154.5" x2="206" y1="152.9" y2="77.3" gradientUnits="userSpaceOnUse">
      <stop offset="0" stop-color="#1c2829"/>
      <stop offset="1" stop-color="#3b5557"/>
    </linearGradient>
    <path fill="url(#SVGID_70_)" d="M156.2 95.1c-8.2 5-14 14.9-17.6 27a91 91 0 0038.2 7.7c16.7 0 29.7-3.4 39.5-7.7-2.9-10.8-5.9-19-8.4-21.9-5.9-6.7-18.6-9.1-30.2-9a47 47 0 00-1.4 11.5c0-1.3-.4-6-2-11.4-8 .4-14.9 1.9-18 3.8z" opacity=".4"/>
    <g>
      <linearGradient id="SVGID_71_" x1="132.9" x2="202.5" y1="115.1" y2="64.3" gradientUnits="userSpaceOnUse">
        <stop offset=".3" stop-color="#a7b4b5"/>
        <stop offset="1" stop-color="#e8e8e8"/>
      </linearGradient>
      <path fill="url(#SVGID_71_)" d="M223 68.3s-.7-22.3-6.2-27c-5.5-4.7-21.7 9.9-21.7 9.9s19.6 18.7 27.9 17z"/>
      <path d="M218.2 62.4s0-18.1-4.8-19.8c0 0-12.8 7-8.6 11 4.3 4 12.6 10.2 13.4 8.8z" class="st60"/>
      <path d="M213.4 42.6c1.4.5 2.4 2.3 3 4.7-.2-.3-.5-.4-.7-.5 0 0-8.1 4.4-9.3 8.2l-1.6-1.4c-4.2-4 8.6-11 8.6-11z" class="st76"/>
      <linearGradient id="SVGID_72_" x1="105.8" x2="175.4" y1="77.9" y2="27.1" gradientUnits="userSpaceOnUse">
        <stop offset=".3" stop-color="#a7b4b5"/>
        <stop offset="1" stop-color="#e8e8e8"/>
      </linearGradient>
      <path fill="url(#SVGID_72_)" d="M132.1 67.7s.7-22.3 6.2-27c5.5-4.7 21.7 9.9 21.7 9.9s-19.6 18.7-27.9 17z"/>
      <linearGradient id="SVGID_73_" x1="136.4" x2="206" y1="119.8" y2="69" gradientUnits="userSpaceOnUse">
        <stop offset=".3" stop-color="#a7b4b5"/>
        <stop offset="1" stop-color="#e8e8e8"/>
      </linearGradient>
      <path fill="url(#SVGID_73_)" d="M112 94.1S135 48 176.8 48c47 0 64.8 48.4 64.8 48.4s-17.6 26.9-64.8 26.9C129.6 123.3 112 94 112 94z"/>
      <path d="M136.9 61.8s-.1-18.1 4.8-19.8c0 0 12.8 7 8.5 11-4.2 4-12.6 10.2-13.3 8.8z" class="st60"/>
      <path d="M141.7 42c-1.4.5-2.4 2.3-3.1 4.7l.8-.5s8 4.4 9.3 8.2l1.5-1.4c4.3-4-8.5-11-8.5-11z" class="st76"/>
      <linearGradient id="SVGID_74_" x1="142.1" x2="211.6" y1="146.2" y2="44.1" gradientUnits="userSpaceOnUse">
        <stop offset="0" stop-color="#1c2829"/>
        <stop offset="1" stop-color="#3b5557"/>
      </linearGradient>
      <path fill="url(#SVGID_74_)" d="M203.7 71a46 46 0 00-5.7-.9c-9.2-1-17.8 5-20.2 14-1.8 6.8-1.5 12.5-1.5 12.5s0-6-2.4-13a19 19 0 00-21.3-12.5c-2.2.4-4.4 1-6.2 1.5-20.9 7-34.4 21.5-34.4 21.5s17.6 29.2 64.8 29.2c47.2 0 64.8-27 64.8-27s-18-20.5-37.9-25.2z"/>
      <path d="M146.4 76.3c1.8-.6 4-1.1 6.2-1.5A19 19 0 01174 87.3a46 46 0 012.4 12.4c0-1.6 0-6.4 1.5-12 2.4-9 11-14.9 20.2-14 2 .3 4 .6 5.7 1 16.5 3.9 31.7 18.7 36.4 23.7l1.5-2s-18-20.6-37.9-25.3a46 46 0 00-5.7-1c-9.2-1-17.8 5-20.2 14a47 47 0 00-1.5 12 46 46 0 00-2.4-12.4A19 19 0 00152.6 71c-2.2.4-4.4 1-6.2 1.5-20.9 7-34.4 21.5-34.4 21.5l1.5 2.2c4-4 16-14.4 32.9-20z" class="st80"/>
      <path d="M164 86.7c0 5.2-3.1 9.5-7 9.5-3.8 0-6.9-4.3-6.9-9.5 0-5.3 3.1-9.6 7-9.6 3.8 0 7 4.3 7 9.6z" class="st81"/>
      <path d="M164 86.7c0 5.2-3.1 9.5-7 9.5-3.8 0-6.9-4.3-6.9-9.5 0-5.3 3.1-9.6 7-9.6 3.8 0 7 4.3 7 9.6z" class="st82"/>
      <path d="M156.6 78.3c3.8 0 7 4.3 7 9.5 0 1.6-.4 3-.8 4.3a12 12 0 001.2-5.4c0-5.3-3.1-9.6-7-9.6-2.7 0-5 2.2-6.1 5.3 1.2-2.5 3.3-4 5.7-4z" class="st83"/>
      <linearGradient id="SVGID_75_" x1="152.5" x2="165.1" y1="91.8" y2="79.9" gradientUnits="userSpaceOnUse">
        <stop offset="0" stop-color="#070a0a"/>
        <stop offset=".9" stop-color="#1c2829"/>
      </linearGradient>
      <circle cx="157.1" cy="87.5" r="5.4" fill="url(#SVGID_75_)"/>
      <path d="M161.1 85.3a2.5 2.5 0 11-5 0 2.5 2.5 0 015 0z" class="st82"/>
      <path d="M157.6 95.6c-3.8 0-7-4.3-7-9.5 0-2.6.8-5 2-6.7a11.1 11.1 0 00-2.5 7.3c0 5.2 3.1 9.5 7 9.5 1.9 0 3.6-1.1 5-2.8a6 6 0 01-4.5 2.2z" class="st80"/>
      <path d="M203 86.7c0 5.2-3 9.5-6.9 9.5-3.8 0-7-4.3-7-9.5 0-5.3 3.2-9.6 7-9.6s7 4.3 7 9.6z" class="st81"/>
      <path d="M203 86.7c0 5.2-3 9.5-6.9 9.5-3.8 0-7-4.3-7-9.5 0-5.3 3.2-9.6 7-9.6s7 4.3 7 9.6z" class="st82"/>
      <path d="M195.6 78.3c3.9 0 7 4.3 7 9.5 0 1.6-.3 3-.8 4.3a12 12 0 001.3-5.4c0-5.3-3.2-9.6-7-9.6-2.7 0-5 2.2-6.2 5.3 1.3-2.5 3.4-4 5.7-4z" class="st83"/>
      <linearGradient id="SVGID_76_" x1="191.6" x2="204.1" y1="91.8" y2="79.9" gradientUnits="userSpaceOnUse">
        <stop offset="0" stop-color="#070a0a"/>
        <stop offset=".9" stop-color="#1c2829"/>
      </linearGradient>
      <path fill="url(#SVGID_76_)" d="M201.5 87.5a5.4 5.4 0 11-10.8 0 5.4 5.4 0 0110.8 0z"/>
      <path d="M200.2 85.3a2.5 2.5 0 11-5 0 2.5 2.5 0 015 0z" class="st82"/>
      <path fill="#a7b4b5" d="M176.8 123.3c47.2 0 64.8-27 64.8-27s-25.8 19.5-64.5 20.5S112 94 112 94s17.6 29.2 64.8 29.2z" opacity=".6"/>
      <linearGradient id="SVGID_77_" x1="119.4" x2="207" y1="130.3" y2="66.4" gradientUnits="userSpaceOnUse">
        <stop offset="0" stop-color="#070a0a"/>
        <stop offset=".9" stop-color="#1c2829"/>
      </linearGradient>
      <path fill="url(#SVGID_77_)" d="M192 102.4c-4.9-4.9-7.5-11.7-8-18.6-1.4-15.7-4.7-32.7-9.4-27.5-4 4.4-5.7 15.6-6.3 26.4a30.6 30.6 0 01-8 20c-5.8 5.9 4.8 15 15.6 15s22-9.5 16.2-15.3z" opacity=".7"/>
      <linearGradient id="SVGID_78_" x1="119.4" x2="207" y1="128.2" y2="64.3" gradientUnits="userSpaceOnUse">
        <stop offset=".3" stop-color="#a7b4b5"/>
        <stop offset="1" stop-color="#e8e8e8"/>
      </linearGradient>
      <path fill="url(#SVGID_78_)" d="M192 100.4c-4.9-5-7.5-11.7-8-18.7-1.4-15.7-4.7-32.6-9.4-27.5-4 4.4-5.7 15.7-6.3 26.4a30.6 30.6 0 01-8 20c-5.8 5.9 4.8 15 15.6 15s22-9.4 16.2-15.2z"/>
      <linearGradient id="SVGID_79_" x1="169.3" x2="192.5" y1="113.8" y2="87.2" gradientUnits="userSpaceOnUse">
        <stop offset="0" stop-color="#070a0a"/>
        <stop offset=".9" stop-color="#1c2829"/>
      </linearGradient>
      <path fill="url(#SVGID_79_)" d="M175.3 115.3s-8.7-3.9-8.3-9.8c.4-5.9 19.5-4.9 17.6 1.3-2 6.2-9.3 8.5-9.3 8.5z"/>
    </g>
    <linearGradient id="SVGID_80_" x1="127.1" x2="148.1" y1="99.6" y2="84.3" gradientTransform="rotate(-17.4 150.4 67)" gradientUnits="userSpaceOnUse">
      <stop offset=".3" stop-color="#a7b4b5"/>
      <stop offset="1" stop-color="#e8e8e8"/>
    </linearGradient>
    <path fill="url(#SVGID_80_)" d="M157.3 99c1.2-1.2-24.7-7-24.7-7s23.1 8.8 24.7 7z"/>
    <linearGradient id="SVGID_81_" x1="120" x2="140.9" y1="100" y2="84.7" gradientTransform="rotate(-29.8 152.2 70.1)" gradientUnits="userSpaceOnUse">
      <stop offset=".3" stop-color="#a7b4b5"/>
      <stop offset="1" stop-color="#e8e8e8"/>
    </linearGradient>
    <path fill="url(#SVGID_81_)" d="M156.7 102c.9-1.4-25.7-1.5-25.7-1.5s24.5 3.6 25.7 1.6z"/>
    <linearGradient id="SVGID_82_" x1="112.6" x2="133.5" y1="99.2" y2="84" gradientTransform="rotate(-43.6 152.5 72)" gradientUnits="userSpaceOnUse">
      <stop offset=".3" stop-color="#a7b4b5"/>
      <stop offset="1" stop-color="#e8e8e8"/>
    </linearGradient>
    <path fill="url(#SVGID_82_)" d="M157 105.4c.6-1.6-25.2 4.6-25.2 4.6s24.6-2.4 25.3-4.6z"/>
    <linearGradient id="SVGID_83_" x1="169.7" x2="190.6" y1="114" y2="98.7" gradientTransform="scale(-1 1) rotate(-17.4 -48.5 1365)" gradientUnits="userSpaceOnUse">
      <stop offset=".3" stop-color="#a7b4b5"/>
      <stop offset="1" stop-color="#e8e8e8"/>
    </linearGradient>
    <path fill="url(#SVGID_83_)" d="M195.5 100c-1.2-1.2 24.7-7 24.7-7s-23.1 8.7-24.7 7z"/>
    <linearGradient id="SVGID_84_" x1="156.9" x2="177.9" y1="121.9" y2="106.7" gradientTransform="scale(-1 1) rotate(-29.8 -46.7 818.3)" gradientUnits="userSpaceOnUse">
      <stop offset=".3" stop-color="#a7b4b5"/>
      <stop offset="1" stop-color="#e8e8e8"/>
    </linearGradient>
    <path fill="url(#SVGID_84_)" d="M198 102.8c-.8-1.5 25.7-1.6 25.7-1.6s-24.5 3.6-25.6 1.6z"/>
    <linearGradient id="SVGID_85_" x1="145.6" x2="166.6" y1="130.4" y2="115.1" gradientTransform="scale(-1 1) rotate(-43.6 -46.3 569.4)" gradientUnits="userSpaceOnUse">
      <stop offset=".3" stop-color="#a7b4b5"/>
      <stop offset="1" stop-color="#e8e8e8"/>
    </linearGradient>
    <path fill="url(#SVGID_85_)" d="M195.2 105.2c-.5-1.7 25.3 4.6 25.3 4.6s-24.6-2.4-25.3-4.6z"/>
    <linearGradient id="SVGID_86_" x1="116.5" x2="159.9" y1="268.5" y2="236.8" gradientTransform="rotate(-4.8 209 114.6)" gradientUnits="userSpaceOnUse">
      <stop offset="0" stop-color="#1c2829"/>
      <stop offset="1" stop-color="#3b5557"/>
    </linearGradient>
    <path fill="url(#SVGID_86_)" d="M149.7 255.2c-7.1.7-12.5 1.2-12.8 5-.2 3.7 6.5.5 18 .7 11.7.3 2.2-6.5-5.2-5.7z"/>
    <linearGradient id="SVGID_87_" x1="63.9" x2="208.1" y1="193.1" y2="32.4" gradientUnits="userSpaceOnUse">
      <stop offset=".3" stop-color="#a7b4b5"/>
      <stop offset="1" stop-color="#e8e8e8"/>
    </linearGradient>
    <path fill="url(#SVGID_87_)" d="M151 132.9c-7.5-1.8-18.6-5.7-26.8-8 0-.5-22.8-37.4-25.4-26.6-2 8 6.3 28 11.5 38.9 4.4 9.4 30.5 21.2 40 15.7 9.5-5.6.6-20 .6-20z"/>
    <linearGradient id="SVGID_88_" x1="95.8" x2="129.2" y1="101.8" y2="53.9" gradientUnits="userSpaceOnUse">
      <stop offset="0" stop-color="#1c2829"/>
      <stop offset="1" stop-color="#3b5557"/>
    </linearGradient>
    <path fill="url(#SVGID_88_)" d="M99.4 103.3c-5.5 0-4.7-12.1-2.1-15.4 2.5-3.3 9.8 1.5 9.3 8.1-.4 6.6-6.4 7.2-7.2 7.3z"/>
    <linearGradient id="SVGID_89_" x1="129.4" x2="273.6" y1="251.9" y2="91.2" gradientUnits="userSpaceOnUse">
      <stop offset=".3" stop-color="#a7b4b5"/>
      <stop offset="1" stop-color="#e8e8e8"/>
    </linearGradient>
    <path fill="url(#SVGID_89_)" d="M214.6 125.3s18.8-2.3 20.4 24c1.6 26.4-15.8 35.4-19.2 10.6s-4.2-30.2-1.2-34.6z"/>
    <linearGradient id="SVGID_90_" x1="141.5" x2="285.7" y1="262.7" y2="102" gradientUnits="userSpaceOnUse">
      <stop offset=".3" stop-color="#a7b4b5"/>
      <stop offset="1" stop-color="#e8e8e8"/>
    </linearGradient>
    <path fill="url(#SVGID_90_)" d="M215.8 159.9s1.7 24 5 30.7c3.2 6.6 9 .7 11.4-9.8 2.3-10.5 2.7-23.8 2.7-23.8s-20.6-12-19.1 2.9z"/>
    <linearGradient id="SVGID_91_" x1="219.3" x2="256.1" y1="200.8" y2="148" gradientUnits="userSpaceOnUse">
      <stop offset="0" stop-color="#1c2829"/>
      <stop offset="1" stop-color="#3b5557"/>
    </linearGradient>
    <path fill="url(#SVGID_91_)" d="M219.7 187.7c-.3 4 .7 13.2 3.3 15.3 2.7 2.2 8.2-2.2 7.2-11-1-9-10.1-9.2-10.5-4.3z"/>
  </g>
</svg>